<svg width="43" height="23" viewBox="0 0 43 23" fill="none" xmlns="http://www.w3.org/2000/svg">
<rect width="43" height="23" rx="11.5" fill="black"/>
<mask id="path-2-outside-1_941_2550" maskUnits="userSpaceOnUse" x="7.5" y="7.5" width="30" height="8" fill="black">
<rect fill="white" x="7.5" y="7.5" width="30" height="8"/>
<path d="M13.3447 8.13672V14.5H12.2021L9.40723 10.457H9.35449V14.5H8.03613V8.13672H9.19629L11.9736 12.1797H12.0352V8.13672H13.3447ZM15.497 14.5V8.13672H19.7685V9.22656H16.8154V10.7734H19.5487V11.8633H16.8154V13.4102H19.7773V14.5H15.497ZM23.3006 14.5L21.4813 8.13672H22.9227L23.995 12.584H24.0477L25.2166 8.13672H26.4559L27.6248 12.5928H27.6776L28.7498 8.13672H30.1912L28.3719 14.5H27.0799L25.867 10.2988H25.8143L24.5926 14.5H23.3006ZM36.6227 8.13672L36.5085 12.5928H35.3835L35.2692 8.13672H36.6227ZM35.9548 14.5791C35.5417 14.5791 35.2077 14.2451 35.2165 13.8408C35.2077 13.4365 35.5417 13.1113 35.9548 13.1113C36.3415 13.1113 36.6843 13.4365 36.6843 13.8408C36.6843 14.2451 36.3415 14.5791 35.9548 14.5791Z"/>
</mask>
<path d="M13.3447 8.13672V14.5H12.2021L9.40723 10.457H9.35449V14.5H8.03613V8.13672H9.19629L11.9736 12.1797H12.0352V8.13672H13.3447ZM15.497 14.5V8.13672H19.7685V9.22656H16.8154V10.7734H19.5487V11.8633H16.8154V13.4102H19.7773V14.5H15.497ZM23.3006 14.5L21.4813 8.13672H22.9227L23.995 12.584H24.0477L25.2166 8.13672H26.4559L27.6248 12.5928H27.6776L28.7498 8.13672H30.1912L28.3719 14.5H27.0799L25.867 10.2988H25.8143L24.5926 14.5H23.3006ZM36.6227 8.13672L36.5085 12.5928H35.3835L35.2692 8.13672H36.6227ZM35.9548 14.5791C35.5417 14.5791 35.2077 14.2451 35.2165 13.8408C35.2077 13.4365 35.5417 13.1113 35.9548 13.1113C36.3415 13.1113 36.6843 13.4365 36.6843 13.8408C36.6843 14.2451 36.3415 14.5791 35.9548 14.5791Z" fill="white"/>
<path d="M13.3447 8.13672H13.5447V7.93672H13.3447V8.13672ZM13.3447 14.5V14.7H13.5447V14.5H13.3447ZM12.2021 14.5L12.0376 14.6137L12.0973 14.7H12.2021V14.5ZM9.40723 10.457L9.57174 10.3433L9.5121 10.257H9.40723V10.457ZM9.35449 10.457V10.257H9.15449V10.457H9.35449ZM9.35449 14.5V14.7H9.55449V14.5H9.35449ZM8.03613 14.5H7.83613V14.7H8.03613V14.5ZM8.03613 8.13672V7.93672H7.83613V8.13672H8.03613ZM9.19629 8.13672L9.36114 8.02347L9.30154 7.93672H9.19629V8.13672ZM11.9736 12.1797L11.8088 12.2929L11.8684 12.3797H11.9736V12.1797ZM12.0352 12.1797V12.3797H12.2352V12.1797H12.0352ZM12.0352 8.13672V7.93672H11.8352V8.13672H12.0352ZM13.1447 8.13672V14.5H13.5447V8.13672H13.1447ZM13.3447 14.3H12.2021V14.7H13.3447V14.3ZM12.3667 14.3863L9.57174 10.3433L9.24271 10.5708L12.0376 14.6137L12.3667 14.3863ZM9.40723 10.257H9.35449V10.657H9.40723V10.257ZM9.15449 10.457V14.5H9.55449V10.457H9.15449ZM9.35449 14.3H8.03613V14.7H9.35449V14.3ZM8.23613 14.5V8.13672H7.83613V14.5H8.23613ZM8.03613 8.33672H9.19629V7.93672H8.03613V8.33672ZM9.03144 8.24996L11.8088 12.2929L12.1385 12.0664L9.36114 8.02347L9.03144 8.24996ZM11.9736 12.3797H12.0352V11.9797H11.9736V12.3797ZM12.2352 12.1797V8.13672H11.8352V12.1797H12.2352ZM12.0352 8.33672H13.3447V7.93672H12.0352V8.33672ZM15.497 14.5H15.297V14.7H15.497V14.5ZM15.497 8.13672V7.93672H15.297V8.13672H15.497ZM19.7685 8.13672H19.9685V7.93672H19.7685V8.13672ZM19.7685 9.22656V9.42656H19.9685V9.22656H19.7685ZM16.8154 9.22656V9.02656H16.6154V9.22656H16.8154ZM16.8154 10.7734H16.6154V10.9734H16.8154V10.7734ZM19.5487 10.7734H19.7487V10.5734H19.5487V10.7734ZM19.5487 11.8633V12.0633H19.7487V11.8633H19.5487ZM16.8154 11.8633V11.6633H16.6154V11.8633H16.8154ZM16.8154 13.4102H16.6154V13.6102H16.8154V13.4102ZM19.7773 13.4102H19.9773V13.2102H19.7773V13.4102ZM19.7773 14.5V14.7H19.9773V14.5H19.7773ZM15.697 14.5V8.13672H15.297V14.5H15.697ZM15.497 8.33672H19.7685V7.93672H15.497V8.33672ZM19.5685 8.13672V9.22656H19.9685V8.13672H19.5685ZM19.7685 9.02656H16.8154V9.42656H19.7685V9.02656ZM16.6154 9.22656V10.7734H17.0154V9.22656H16.6154ZM16.8154 10.9734H19.5487V10.5734H16.8154V10.9734ZM19.3487 10.7734V11.8633H19.7487V10.7734H19.3487ZM19.5487 11.6633H16.8154V12.0633H19.5487V11.6633ZM16.6154 11.8633V13.4102H17.0154V11.8633H16.6154ZM16.8154 13.6102H19.7773V13.2102H16.8154V13.6102ZM19.5773 13.4102V14.5H19.9773V13.4102H19.5773ZM19.7773 14.3H15.497V14.7H19.7773V14.3ZM23.3006 14.5L23.1083 14.555L23.1498 14.7H23.3006V14.5ZM21.4813 8.13672V7.93672H21.2161L21.289 8.1917L21.4813 8.13672ZM22.9227 8.13672L23.1171 8.08984L23.0802 7.93672H22.9227V8.13672ZM23.995 12.584L23.8005 12.6309L23.8375 12.784H23.995V12.584ZM24.0477 12.584V12.784H24.2019L24.2411 12.6348L24.0477 12.584ZM25.2166 8.13672V7.93672H25.0624L25.0232 8.08588L25.2166 8.13672ZM26.4559 8.13672L26.6494 8.08597L26.6102 7.93672H26.4559V8.13672ZM27.6248 12.5928L27.4314 12.6435L27.4705 12.7928H27.6248V12.5928ZM27.6776 12.5928V12.7928H27.8352L27.872 12.6396L27.6776 12.5928ZM28.7498 8.13672V7.93672H28.5923L28.5554 8.08993L28.7498 8.13672ZM30.1912 8.13672L30.3835 8.1917L30.4564 7.93672H30.1912V8.13672ZM28.3719 14.5V14.7H28.5227L28.5642 14.555L28.3719 14.5ZM27.0799 14.5L26.8878 14.5555L26.9295 14.7H27.0799V14.5ZM25.867 10.2988L26.0592 10.2434L26.0175 10.0988H25.867V10.2988ZM25.8143 10.2988V10.0988H25.6642L25.6223 10.243L25.8143 10.2988ZM24.5926 14.5V14.7H24.7427L24.7847 14.5558L24.5926 14.5ZM23.4929 14.445L21.6736 8.08174L21.289 8.1917L23.1083 14.555L23.4929 14.445ZM21.4813 8.33672H22.9227V7.93672H21.4813V8.33672ZM22.7283 8.1836L23.8005 12.6309L24.1894 12.5371L23.1171 8.08984L22.7283 8.1836ZM23.995 12.784H24.0477V12.384H23.995V12.784ZM24.2411 12.6348L25.4101 8.18756L25.0232 8.08588L23.8543 12.5331L24.2411 12.6348ZM25.2166 8.33672H26.4559V7.93672H25.2166V8.33672ZM26.2624 8.18747L27.4314 12.6435L27.8183 12.542L26.6494 8.08597L26.2624 8.18747ZM27.6248 12.7928H27.6776V12.3928H27.6248V12.7928ZM27.872 12.6396L28.9443 8.18351L28.5554 8.08993L27.4831 12.546L27.872 12.6396ZM28.7498 8.33672H30.1912V7.93672H28.7498V8.33672ZM29.999 8.08174L28.1796 14.445L28.5642 14.555L30.3835 8.1917L29.999 8.08174ZM28.3719 14.3H27.0799V14.7H28.3719V14.3ZM27.2721 14.4445L26.0592 10.2434L25.6749 10.3543L26.8878 14.5555L27.2721 14.4445ZM25.867 10.0988H25.8143V10.4988H25.867V10.0988ZM25.6223 10.243L24.4006 14.4442L24.7847 14.5558L26.0063 10.3547L25.6223 10.243ZM24.5926 14.3H23.3006V14.7H24.5926V14.3ZM36.6227 8.13672L36.8227 8.14185L36.8279 7.93672H36.6227V8.13672ZM36.5085 12.5928V12.7928H36.7034L36.7084 12.5979L36.5085 12.5928ZM35.3835 12.5928L35.1835 12.5979L35.1885 12.7928H35.3835V12.5928ZM35.2692 8.13672V7.93672H35.064L35.0693 8.14185L35.2692 8.13672ZM35.2165 13.8408L35.4166 13.8452L35.4164 13.8365L35.2165 13.8408ZM36.4228 8.13159L36.3085 12.5876L36.7084 12.5979L36.8227 8.14185L36.4228 8.13159ZM36.5085 12.3928H35.3835V12.7928H36.5085V12.3928ZM35.5834 12.5876L35.4692 8.13159L35.0693 8.14185L35.1835 12.5979L35.5834 12.5876ZM35.2692 8.33672H36.6227V7.93672H35.2692V8.33672ZM35.9548 14.3791C35.6497 14.3791 35.4102 14.1332 35.4164 13.8452L35.0165 13.8365C35.0052 14.357 35.4337 14.7791 35.9548 14.7791V14.3791ZM35.4164 13.8365C35.4102 13.5515 35.6465 13.3113 35.9548 13.3113V12.9113C35.4369 12.9113 35.0051 13.3215 35.0165 13.8452L35.4164 13.8365ZM35.9548 13.3113C36.2342 13.3113 36.4843 13.5501 36.4843 13.8408H36.8843C36.8843 13.323 36.4488 12.9113 35.9548 12.9113V13.3113ZM36.4843 13.8408C36.4843 14.1347 36.231 14.3791 35.9548 14.3791V14.7791C36.4519 14.7791 36.8843 14.3556 36.8843 13.8408H36.4843Z" fill="white" mask="url(#path-2-outside-1_941_2550)"/>
</svg>
