<svg width="25" height="25" viewBox="0 0 25 25" fill="none" xmlns="http://www.w3.org/2000/svg">
<circle cx="12.5" cy="12.5" r="12.5" fill="white" fill-opacity="0.43"/>
<path d="M12.5 19.8571C12.3549 19.8571 12.2321 19.8069 12.1317 19.7065L6.90848 14.6674C6.85268 14.6228 6.77595 14.5502 6.67829 14.4498C6.58064 14.3493 6.42578 14.1666 6.21373 13.9015C6.00167 13.6364 5.81194 13.3644 5.64453 13.0854C5.47712 12.8064 5.32785 12.4687 5.19671 12.0725C5.06557 11.6763 5 11.2913 5 10.9174C5 9.68973 5.35435 8.72991 6.06306 8.03795C6.77176 7.34598 7.75112 7 9.00112 7C9.3471 7 9.70006 7.05999 10.06 7.17997C10.4199 7.29994 10.7547 7.46177 11.0645 7.66546C11.3742 7.86914 11.6406 8.06027 11.8638 8.23884C12.0871 8.41741 12.2991 8.60714 12.5 8.80804C12.7009 8.60714 12.9129 8.41741 13.1362 8.23884C13.3594 8.06027 13.6258 7.86914 13.9355 7.66546C14.2453 7.46177 14.5801 7.29994 14.94 7.17997C15.2999 7.05999 15.6529 7 15.9989 7C17.2489 7 18.2282 7.34598 18.9369 8.03795C19.6456 8.72991 20 9.68973 20 10.9174C20 12.1507 19.361 13.4062 18.0831 14.6842L12.8683 19.7065C12.7679 19.8069 12.6451 19.8571 12.5 19.8571Z" fill="#FF5914"/>
</svg>
