<svg width="27" height="27" viewBox="0 0 27 27" fill="none" xmlns="http://www.w3.org/2000/svg">
<circle cx="13.5" cy="13.5" r="13.5" fill="white" fill-opacity="0.43"/>
<path d="M19.1167 15.2614L13.5002 20.8296L7.86761 15.2358L7.83458 15.203L7.79865 15.1734C7.78521 15.1623 7.7329 15.1147 7.62908 15.0048C7.55497 14.9263 7.40566 14.7476 7.16515 14.4381C6.95096 14.1625 6.76098 13.8818 6.59443 13.596C6.44977 13.3479 6.30742 13.0239 6.17494 12.6119C6.05456 12.2375 6 11.8916 6 11.5703C6 10.3306 6.34209 9.49077 6.9137 8.91625C7.48573 8.3413 8.31528 8 9.5346 8C9.80581 8 10.0962 8.04813 10.4101 8.15583C10.7359 8.26764 11.0358 8.41719 11.3124 8.60445C11.6446 8.82933 11.9203 9.03356 12.1433 9.21724C12.3678 9.40213 12.5809 9.5984 12.7827 9.80616L13.5 10.5445L14.2173 9.80616C14.4191 9.5984 14.6322 9.40213 14.8567 9.21724C15.0797 9.03356 15.3554 8.82933 15.6876 8.60445C15.9642 8.41719 16.2641 8.26764 16.5899 8.15583C16.9038 8.04813 17.1942 8 17.4654 8C18.6847 8 19.5143 8.3413 20.0863 8.91625C20.6579 9.49077 21 10.3306 21 11.5703C21 12.6509 20.4595 13.877 19.1167 15.2614Z" stroke="#BCBCC4" stroke-width="2"/>
</svg>
