<svg width="30" height="30" viewBox="0 0 30 30" fill="none" xmlns="http://www.w3.org/2000/svg">
<circle cx="15" cy="15" r="15" fill="white" fill-opacity="0.62"/>
<g filter="url(#filter0_d_371_1400)">
<path d="M15 24C14.8259 24 14.6786 23.9375 14.558 23.8125L8.29018 17.5417C8.22321 17.4861 8.13114 17.3958 8.01395 17.2708C7.89676 17.1458 7.71094 16.9184 7.45647 16.5885C7.20201 16.2587 6.97433 15.9201 6.77344 15.5729C6.57254 15.2257 6.39342 14.8056 6.23605 14.3125C6.07868 13.8194 6 13.3403 6 12.875C6 11.3472 6.42522 10.1528 7.27567 9.29167C8.12612 8.43056 9.30134 8 10.8013 8C11.2165 8 11.6401 8.07465 12.072 8.22396C12.5039 8.37326 12.9057 8.57465 13.2773 8.82813C13.649 9.0816 13.9688 9.31944 14.2366 9.54167C14.5045 9.76389 14.7589 10 15 10.25C15.2411 10 15.4955 9.76389 15.7634 9.54167C16.0313 9.31944 16.351 9.0816 16.7227 8.82813C17.0943 8.57465 17.4961 8.37326 17.928 8.22396C18.3599 8.07465 18.7835 8 19.1987 8C20.6987 8 21.8739 8.43056 22.7243 9.29167C23.5748 10.1528 24 11.3472 24 12.875C24 14.4097 23.2333 15.9722 21.6998 17.5625L15.442 23.8125C15.3214 23.9375 15.1741 24 15 24Z" fill="#FF5914"/>
</g>
<path d="M19.928 11.2394C19.7454 11.9739 19.617 12.7665 19.1966 13.3592C18.8169 13.8946 18.391 14.3674 18 14.8819" stroke="white" stroke-width="2" stroke-linecap="round"/>
<path d="M15.4553 17C15.3123 17.1222 14.9264 17.534 15.0694 17.4118" stroke="white" stroke-width="2" stroke-linecap="round"/>
<defs>
<filter id="filter0_d_371_1400" x="3.3" y="6.3" width="23.4" height="21.4" filterUnits="userSpaceOnUse" color-interpolation-filters="sRGB">
<feFlood flood-opacity="0" result="BackgroundImageFix"/>
<feColorMatrix in="SourceAlpha" type="matrix" values="0 0 0 0 0 0 0 0 0 0 0 0 0 0 0 0 0 0 127 0" result="hardAlpha"/>
<feOffset dy="1"/>
<feGaussianBlur stdDeviation="1.35"/>
<feComposite in2="hardAlpha" operator="out"/>
<feColorMatrix type="matrix" values="0 0 0 0 0 0 0 0 0 0 0 0 0 0 0 0 0 0 0.18 0"/>
<feBlend mode="normal" in2="BackgroundImageFix" result="effect1_dropShadow_371_1400"/>
<feBlend mode="normal" in="SourceGraphic" in2="effect1_dropShadow_371_1400" result="shape"/>
</filter>
</defs>
</svg>
