<svg width="20" height="20" viewBox="0 0 22 22" fill="none" xmlns="http://www.w3.org/2000/svg">
<path d="M11 20.4286C10.7872 20.4286 10.6071 20.3549 10.4598 20.2076L2.79911 12.817C2.71726 12.7515 2.60472 12.6451 2.4615 12.4978C2.31827 12.3504 2.09115 12.0824 1.78013 11.6936C1.46912 11.3049 1.19085 10.9059 0.945312 10.4966C0.699777 10.0874 0.480841 9.59226 0.288504 9.01116C0.0961681 8.43006 0 7.86532 0 7.31696C0 5.51637 0.519717 4.10863 1.55915 3.09375C2.59859 2.07887 4.03497 1.57143 5.8683 1.57143C6.37574 1.57143 6.89342 1.65941 7.42132 1.83538C7.94922 2.01134 8.44029 2.2487 8.89453 2.54743C9.34877 2.84617 9.73958 3.12649 10.067 3.38839C10.3943 3.6503 10.7054 3.92857 11 4.22321C11.2946 3.92857 11.6057 3.6503 11.933 3.38839C12.2604 3.12649 12.6512 2.84617 13.1055 2.54743C13.5597 2.2487 14.0508 2.01134 14.5787 1.83538C15.1066 1.65941 15.6243 1.57143 16.1317 1.57143C17.965 1.57143 19.4014 2.07887 20.4408 3.09375C21.4803 4.10863 22 5.51637 22 7.31696C22 9.12574 21.0629 10.9673 19.1886 12.8415L11.5402 20.2076C11.3929 20.3549 11.2128 20.4286 11 20.4286Z" fill="#FF814D"/>
</svg>
