<svg width="25" height="25" viewBox="0 0 25 25" fill="none" xmlns="http://www.w3.org/2000/svg">
<circle cx="12.5" cy="12.5" r="12.5" fill="white" fill-opacity="0.43"/>
<path d="M12.4872 19.4961L12.4873 19.496L12.4808 19.4897L7.25762 14.3947L7.24099 14.3785L7.22293 14.3639C7.19215 14.339 7.13287 14.2839 7.03871 14.186C6.95955 14.1037 6.81796 13.9361 6.60584 13.6679C6.40705 13.4167 6.23009 13.16 6.07452 12.8978C5.93018 12.6546 5.7947 12.3485 5.6719 11.9734C5.55532 11.6172 5.5 11.2804 5.5 10.9609C5.5 9.81843 5.82305 8.98903 6.41433 8.4053C7.00701 7.82019 7.84729 7.5 9.00112 7.5C9.28775 7.5 9.58681 7.55012 9.9003 7.65578C10.2197 7.76344 10.515 7.90796 10.7876 8.0892C11.0879 8.2889 11.3412 8.47293 11.5494 8.64135C11.7583 8.81035 11.9567 8.98979 12.1445 9.17972L12.5 9.53917L12.8555 9.17972C13.0433 8.98979 13.2417 8.81035 13.4506 8.64135C13.6588 8.47293 13.9121 8.2889 14.2124 8.0892C14.485 7.90796 14.7803 7.76344 15.0997 7.65578C15.4132 7.55012 15.7122 7.5 15.9989 7.5C17.1527 7.5 17.993 7.82019 18.5857 8.4053C19.1769 8.98903 19.5 9.81843 19.5 10.9609C19.5 12.0254 18.9562 13.1747 17.7309 14.4146L12.5195 19.4894L12.5194 19.4894L12.5128 19.4961C12.5113 19.4976 12.51 19.4988 12.5091 19.4996C12.5072 19.4998 12.5042 19.5 12.5 19.5C12.4958 19.5 12.4928 19.4998 12.4909 19.4996C12.49 19.4988 12.4887 19.4976 12.4872 19.4961Z" stroke="#BCBCC4"/>
</svg>
