<svg width="27" height="27" viewBox="0 0 27 27" fill="none" xmlns="http://www.w3.org/2000/svg">
<circle cx="13.5" cy="13.5" r="13.5" fill="white" fill-opacity="0.43"/>
<g filter="url(#filter0_d_371_1400)">
<path d="M13.5 22C13.3356 22 13.1964 21.9414 13.0826 21.8242L7.16295 15.9453C7.0997 15.8932 7.01274 15.8086 6.90206 15.6914C6.79139 15.5742 6.61589 15.361 6.37556 15.0518C6.13523 14.7425 5.9202 14.4251 5.73047 14.0996C5.54074 13.7741 5.37156 13.3802 5.22294 12.918C5.07431 12.4557 5 12.0065 5 11.5703C5 10.138 5.4016 9.01823 6.2048 8.21094C7.008 7.40365 8.11793 7 9.5346 7C9.92671 7 10.3267 7.06999 10.7347 7.20996C11.1426 7.34993 11.522 7.53874 11.873 7.77637C12.2241 8.014 12.526 8.23698 12.779 8.44531C13.032 8.65365 13.2723 8.875 13.5 9.10937C13.7277 8.875 13.968 8.65365 14.221 8.44531C14.474 8.23698 14.7759 8.014 15.127 7.77637C15.478 7.53874 15.8574 7.34993 16.2653 7.20996C16.6733 7.06999 17.0733 7 17.4654 7C18.8821 7 19.992 7.40365 20.7952 8.21094C21.5984 9.01823 22 10.138 22 11.5703C22 13.0091 21.2759 14.474 19.8276 15.9648L13.9174 21.8242C13.8036 21.9414 13.6644 22 13.5 22Z" fill="#FF5914"/>
</g>
<path d="M19.928 11.2394C19.7454 11.9739 19.617 12.7665 19.1966 13.3592C18.8169 13.8946 18.391 14.3674 18 14.8819" stroke="white" stroke-width="2" stroke-linecap="round"/>
<path d="M15.4553 17C15.3123 17.1222 14.9264 17.534 15.0694 17.4118" stroke="white" stroke-width="2" stroke-linecap="round"/>
<defs>
<filter id="filter0_d_371_1400" x="2.3" y="5.3" width="22.4" height="20.4" filterUnits="userSpaceOnUse" color-interpolation-filters="sRGB">
<feFlood flood-opacity="0" result="BackgroundImageFix"/>
<feColorMatrix in="SourceAlpha" type="matrix" values="0 0 0 0 0 0 0 0 0 0 0 0 0 0 0 0 0 0 127 0" result="hardAlpha"/>
<feOffset dy="1"/>
<feGaussianBlur stdDeviation="1.35"/>
<feComposite in2="hardAlpha" operator="out"/>
<feColorMatrix type="matrix" values="0 0 0 0 0 0 0 0 0 0 0 0 0 0 0 0 0 0 0.18 0"/>
<feBlend mode="normal" in2="BackgroundImageFix" result="effect1_dropShadow_371_1400"/>
<feBlend mode="normal" in="SourceGraphic" in2="effect1_dropShadow_371_1400" result="shape"/>
</filter>
</defs>
</svg>
