<svg width="22" height="20" viewBox="0 0 22 20" fill="none" xmlns="http://www.w3.org/2000/svg">
<path d="M11.0001 18.3393L3.49341 11.0973L3.46003 11.0651L3.4238 11.0361C3.39214 11.0108 3.31465 10.9407 3.17849 10.8007C3.07251 10.6917 2.87213 10.4579 2.561 10.0689C2.27677 9.71365 2.02433 9.35136 1.80281 8.98215C1.60406 8.65091 1.41318 8.22666 1.23785 7.69694C1.07521 7.20554 1 6.74692 1 6.31696C1 4.71715 1.45514 3.59291 2.25776 2.80925C3.06467 2.02141 4.22429 1.57143 5.8683 1.57143C6.2584 1.57143 6.66935 1.63882 7.10509 1.78406C7.55261 1.93323 7.96502 2.13301 8.34505 2.38294C8.78053 2.66933 9.14496 2.93141 9.44227 3.16926C9.74102 3.40826 10.0245 3.66192 10.2929 3.93032L11 4.63743L11.7071 3.93032C11.9755 3.66192 12.259 3.40826 12.5577 3.16926C12.855 2.93141 13.2195 2.66933 13.6549 2.38294C14.035 2.13301 14.4474 1.93323 14.8949 1.78406C15.3306 1.63882 15.7416 1.57143 16.1317 1.57143C17.7757 1.57143 18.9353 2.02141 19.7422 2.80925C20.5449 3.59291 21 4.71715 21 6.31696C21 7.75685 20.2571 9.35671 18.488 11.1279L11.0001 18.3393Z" stroke="#BCBCC4" stroke-width="2"/>
</svg>
