<svg width="30" height="30" viewBox="0 0 30 30" fill="none" xmlns="http://www.w3.org/2000/svg">
<circle cx="15" cy="15" r="15" fill="white" fill-opacity="0.62"/>
<path d="M15 23C14.8452 23 14.7143 22.9453 14.6071 22.8359L9.03571 17.349C8.97619 17.3003 8.89435 17.2214 8.79018 17.112C8.68601 17.0026 8.52083 16.8036 8.29464 16.515C8.06845 16.2263 7.86607 15.9301 7.6875 15.6263C7.50893 15.3225 7.3497 14.9549 7.20982 14.5234C7.06994 14.092 7 13.6727 7 13.2656C7 11.9288 7.37798 10.8837 8.13393 10.1302C8.88988 9.37674 9.93452 9 11.2679 9C11.6369 9 12.0134 9.06532 12.3973 9.19596C12.7812 9.32661 13.1384 9.50282 13.4688 9.72461C13.7991 9.9464 14.0833 10.1545 14.3214 10.349C14.5595 10.5434 14.7857 10.75 15 10.9687C15.2143 10.75 15.4405 10.5434 15.6786 10.349C15.9167 10.1545 16.2009 9.9464 16.5313 9.72461C16.8616 9.50282 17.2188 9.32661 17.6027 9.19596C17.9866 9.06532 18.3631 9 18.7321 9C20.0655 9 21.1101 9.37674 21.8661 10.1302C22.622 10.8837 23 11.9288 23 13.2656C23 14.6085 22.3185 15.9757 20.9554 17.3672L15.3929 22.8359C15.2857 22.9453 15.1548 23 15 23Z" fill="#FFEADB"/>
</svg>
