<svg width="31" height="31" viewBox="0 0 31 31" fill="none" xmlns="http://www.w3.org/2000/svg">
<circle cx="15.5" cy="15.5" r="15.5" fill="white" fill-opacity="0.62"/>
<path d="M13 26H18" stroke="#727272" stroke-width="1.3" stroke-linecap="round"/>
<path d="M13 24H18" stroke="#727272" stroke-width="1.3" stroke-linecap="round"/>
<path fill-rule="evenodd" clip-rule="evenodd" d="M19.1936 17.8493C20.8892 16.6763 22 14.7179 22 12.5C22 8.91015 19.0899 6 15.5 6C11.9101 6 9 8.91015 9 12.5C9 14.592 9.98832 16.4532 11.5235 17.6421L12.2 19.3333L12.7333 22H18.0667L18.6 19.3333L19.1936 17.8493Z" fill="#FFB803"/>
<path d="M19.1936 17.8493L18.8238 17.3147L18.6628 17.4261L18.5901 17.6079L19.1936 17.8493ZM11.5235 17.6421L12.127 17.4007L12.0614 17.2365L11.9215 17.1282L11.5235 17.6421ZM12.2 19.3333L12.8374 19.2059L12.8257 19.1473L12.8035 19.0919L12.2 19.3333ZM12.7333 22L12.096 22.1275L12.2005 22.65H12.7333V22ZM18.0667 22V22.65H18.5995L18.704 22.1275L18.0667 22ZM18.6 19.3333L17.9965 19.0919L17.9743 19.1473L17.9626 19.2059L18.6 19.3333ZM21.35 12.5C21.35 14.4955 20.3515 16.2579 18.8238 17.3147L19.5634 18.3838C21.427 17.0946 22.65 14.9402 22.65 12.5H21.35ZM15.5 6.65C18.7309 6.65 21.35 9.26913 21.35 12.5H22.65C22.65 8.55116 19.4488 5.35 15.5 5.35V6.65ZM9.65 12.5C9.65 9.26913 12.2691 6.65 15.5 6.65V5.35C11.5512 5.35 8.35 8.55116 8.35 12.5H9.65ZM11.9215 17.1282C10.5384 16.0571 9.65 14.3825 9.65 12.5H8.35C8.35 14.8016 9.43821 16.8493 11.1255 18.1561L11.9215 17.1282ZM12.8035 19.0919L12.127 17.4007L10.92 17.8836L11.5965 19.5747L12.8035 19.0919ZM13.3707 21.8725L12.8374 19.2059L11.5626 19.4608L12.096 22.1275L13.3707 21.8725ZM18.0667 21.35H12.7333V22.65H18.0667V21.35ZM17.9626 19.2059L17.4293 21.8725L18.704 22.1275L19.2374 19.4608L17.9626 19.2059ZM18.5901 17.6079L17.9965 19.0919L19.2035 19.5747L19.7971 18.0907L18.5901 17.6079Z" fill="#727272"/>
<path d="M14.316 8.73927C14.114 8.72452 13.9453 8.94755 13.7836 9.04685C13.4246 9.23915 14.3874 8.50149 13.4246 9.23915C13.27 9.35758 12.9265 9.73406 12.7873 9.87125C12.6292 10.0271 12.4902 10.2119 12.3721 10.3945C12.0357 10.9148 11.8613 11.4909 11.7812 12.0954" stroke="white" stroke-width="1.5" stroke-linecap="round"/>
<path d="M9 4L10.237 5.57161" stroke="#FFB803" stroke-linecap="round"/>
<path d="M15 2V4" stroke="#FFB803" stroke-linecap="round"/>
<path d="M21.1852 4L20 5.61099" stroke="#FFB803" stroke-linecap="round"/>
</svg>
