<svg width="12" height="12" viewBox="0 0 12 12" fill="none" xmlns="http://www.w3.org/2000/svg">
<g clip-path="url(#clip0_699_355)">
<path d="M4.66756 2.66668C4.66756 1.37801 5.71263 0.333344 7.00178 0.333344C8.29093 0.333344 9.336 1.37801 9.336 2.66668C9.336 3.95534 8.29093 5.00001 7.00178 5.00001C6.38271 5.00001 5.78899 4.75418 5.35124 4.31659C4.91349 3.87901 4.66756 3.28552 4.66756 2.66668ZM11.606 8.82084L10.7657 7.13501C10.4688 6.5405 9.86067 6.16537 9.19594 6.16668H4.80762C4.14289 6.16537 3.53477 6.5405 3.23786 7.13501L2.39754 8.82084C2.30652 9.0014 2.31552 9.21618 2.42133 9.38849C2.52713 9.56081 2.71465 9.66606 2.9169 9.66668H11.0867C11.2889 9.66606 11.4764 9.56081 11.5822 9.38849C11.688 9.21618 11.697 9.0014 11.606 8.82084Z" fill="#FF814D"/>
</g>
<defs>
<clipPath id="clip0_699_355">
<rect width="12" height="12" fill="white"/>
</clipPath>
</defs>
</svg>
